custom-analysis
version=1
nRows=12
nColumns=42
inDegrees=no

This file contains tibia displacement and acting force.

Units are S.I. units (seconds, meters, Newtons, ...)
Angles are in degrees.

endheader
time	APT	SIT	knee_angle	aACL_R_force	pACL_R_force	aPCL_R_force	pPCL_R_force	aMCL_R_force	mMCL_R_force	pMCL_R_force	aLCL_R_force	mLCL_R_force	pLCL_R_force	aACL_R_length	pACL_R_length	aPCL_R_length	pPCL_R_length	aMCL_R_length	mMCL_R_length	pMCL_R_length	aLCL_R_length	mLCL_R_length	pLCL_R_length	aACL_R_strain	pACL_R_strain	aPCL_R_strain	pPCL_R_strain	aMCL_R_strain	mMCL_R_strain	pMCL_R_strain	aLCL_R_strain	mLCL_R_strain	pLCL_R_strain	femur_lat_meniscii_force_r	femur_lat_meniscii_torque_r	femur_med_meniscii_force_r	femur_med_meniscii_torque_r	femur_lat_tibia_force_r	femur_lat_tibia_torque_r	femur_med_tibia_force_r	femur_med_tibia_torque_r
      0.00000000	      0.00000000	      0.00000000	      1.66574369	      9.59159023	     27.35421420	      0.00000000	      0.00000000	      0.00000000	      3.83340630	     15.82680930	      0.67560592	      0.00000000	      1.56026721	      0.03283933	      0.02724628	      0.02922628	      0.02963990	      0.05630769	      0.06122731	      0.06351768	      0.05657962	      0.05503431	      0.05319875	      0.03576141	      0.05365996	     -0.06010633	     -0.01488641	     -0.02962948	      0.02397939	      0.04593736	      0.01076188	     -0.02280408	      0.01635464	     24.13369588	      4.58151223	     10.59851995	      1.31438675	      0.00000000	      0.00000000	      0.00000000	      0.00000000
      0.00100000	      0.00000939	      0.00004078	      1.66574369	    -13.24345577	      2.71044174	      0.00000000	      0.00000000	      0.00000000	    -44.92617281	    -32.44344930	    -65.15931714	      0.00000000	    -64.34735390	      0.03280700	      0.02721363	      0.02918954	      0.02960209	      0.05626998	      0.06118902	      0.06347990	      0.05653870	      0.05499333	      0.05315777	      0.03474158	      0.05239735	     -0.06128787	     -0.01614311	     -0.03027929	      0.02333891	      0.04531519	      0.01003079	     -0.02353161	      0.01557178	     31.28511198	      5.84727012	     14.25114677	      1.64375176	      0.00000000	      0.00000000	      0.00000000	      0.00000000
      0.00342033	      0.00009946	      0.00027086	      1.66574369	    -24.01073182	    -14.12903797	      0.00000000	      0.00000000	      0.00000000	    -59.76244684	    -47.23548040	    -91.62206796	      0.00000000	    -89.97326052	      0.03262310	      0.02702254	      0.02897682	      0.02938437	      0.05606665	      0.06098071	      0.06327616	      0.05630661	      0.05476221	      0.05292695	      0.02894120	      0.04500780	     -0.06812874	     -0.02337910	     -0.03378339	      0.01985525	      0.04196015	      0.00588478	     -0.02763548	      0.01116192	     62.73279968	     11.70969621	     31.28366361	      3.05575667	      0.00000000	      0.00000000	      0.02880718	      0.00070111
      0.00584065	      0.00026752	      0.00047163	      1.66574369	    -12.90511845	     -7.18332334	      0.00000000	      0.00000000	      0.00000000	    -34.04328270	    -21.57655008	    -66.34457923	      0.00000000	    -63.54926593	      0.03247226	      0.02685479	      0.02876888	      0.02917558	      0.05590770	      0.06081441	      0.06311785	      0.05609481	      0.05455424	      0.05272001	      0.02418387	      0.03852067	     -0.07481596	     -0.03031868	     -0.03652269	      0.01707385	      0.03935337	      0.00210097	     -0.03132811	      0.00720838	     93.87733397	     17.85150445	     58.99421906	      0.31371614	      0.00000000	      0.00000000	     18.48462254	      0.44430284
      0.00725127	      0.00039169	      0.00054786	      1.66574369	     -4.70865693	     -0.23865788	      0.00000000	      0.00000000	      0.00000000	    -17.95804447	     -5.44022059	    -49.68002794	      0.00000000	    -46.34504303	      0.03242592	      0.02679568	      0.02867196	      0.02908106	      0.05585872	      0.06076090	      0.06307009	      0.05600585	      0.05446878	      0.05263544	      0.02272234	      0.03623462	     -0.07793256	     -0.03345998	     -0.03736677	      0.01617896	      0.03856684	      0.00051180	     -0.03284566	      0.00559274	    107.38840370	     20.69651743	     75.26909392	      3.16355412	      0.00000000	      0.00000000	     33.15436614	      0.80185475
      0.00827163	      0.00048972	      0.00058547	      1.66574369	      0.33086146	      4.35189389	      0.00000000	      0.00000000	      0.00000000	     -9.43594242	      3.16510443	      0.00000000	      0.00000000	    -37.73954116	      0.03241089	      0.02677071	      0.02861255	      0.02902459	      0.05584128	      0.06074024	      0.06305390	      0.05595616	      0.05442205	      0.05258946	      0.02224831	      0.03526917	     -0.07984321	     -0.03533706	     -0.03766728	      0.01583352	      0.03830036	     -0.00037583	     -0.03367540	      0.00471439	    114.02181938	     22.06123569	     85.07204113	      5.16989829	      0.00000000	      0.00000000	     39.83595710	      0.96384639
      0.00953262	      0.00061886	      0.00062163	      1.66574369	      4.80378452	      8.65161550	      0.00000000	      0.00000000	      0.00000000	     -4.40721118	      8.33936849	      0.00000000	      0.00000000	    -34.41109387	      0.03240726	      0.02675473	      0.02854215	      0.02895892	      0.05583003	      0.06072519	      0.06304470	      0.05590102	      0.05437092	      0.05253935	      0.02213364	      0.03465117	     -0.08210740	     -0.03751958	     -0.03786125	      0.01558185	      0.03814882	     -0.00136087	     -0.03458324	      0.00375695	    118.96079475	     23.37060017	     96.88403930	      7.81468709	      0.00000000	      0.00000000	     45.73993320	      1.11912892
      0.01104786	      0.00078135	      0.00065273	      1.66574369	      9.75768075	     13.73409585	      0.00000000	      0.00000000	      0.00000000	      2.08592792	     14.93129093	      0.00000000	      0.00000000	    -28.78217885	      0.03242121	      0.02675419	      0.02846138	      0.02888516	      0.05582842	      0.06071937	      0.06304616	      0.05584197	      0.05431703	      0.05248675	      0.02257365	      0.03463015	     -0.08470478	     -0.03997109	     -0.03788884	      0.01548440	      0.03817288	     -0.00241585	     -0.03554016	      0.00275204	    125.10885951	     24.47756383	    107.94852995	     10.76468592	      0.00000000	      0.00000000	     48.64058911	      1.19335096
      0.01256310	      0.00094522	      0.00067140	      1.66574369	     13.09619282	     17.45587801	      0.00000000	      0.00000000	      0.00000000	      6.67437802	     19.54726163	      0.00000000	      0.00000000	    -24.31862647	      0.03245068	      0.02676980	      0.02838771	      0.02881944	      0.05583858	      0.06072566	      0.06305971	      0.05579176	      0.05427212	      0.05244316	      0.02350324	      0.03523382	     -0.08707380	     -0.04215519	     -0.03771382	      0.01558959	      0.03839601	     -0.00331269	     -0.03633750	      0.00191933	    122.68909843	     23.79262559	    117.32925336	     13.66773272	      0.00000000	      0.00000000	     47.10717175	      1.15877815
      0.01407834	      0.00110516	      0.00068270	      1.66574369	     14.97830356	     19.89148959	      0.00000000	      0.00000000	      0.00000000	      8.87554314	     21.72344179	      0.00000000	      0.00000000	    -22.18533114	      0.03248881	      0.02679500	      0.02831976	      0.02875984	      0.05585526	      0.06073882	      0.06307987	      0.05574703	      0.05423259	      0.05240492	      0.02470577	      0.03620833	     -0.08925924	     -0.04413606	     -0.03742629	      0.01580974	      0.03872800	     -0.00411186	     -0.03703941	      0.00118875	    122.80747180	     24.04925918	    121.85357521	     15.35745018	      0.00000000	      0.00000000	     44.71319254	      1.09560738
      0.01622841	      0.00131751	      0.00069353	      1.66574369	     15.62328883	     21.38901058	      0.00000000	      0.00000000	      0.00000000	      9.60829263	     22.30944306	      0.00000000	      0.00000000	    -20.72192192	      0.03254666	      0.02683636	      0.02823157	      0.02868334	      0.05588257	      0.06076164	      0.06311183	      0.05568838	      0.05418084	      0.05235487	      0.02653031	      0.03780771	     -0.09209538	     -0.04667877	     -0.03695567	      0.01619140	      0.03925429	     -0.00515952	     -0.03795839	      0.00023247	    123.81560772	     24.50035397	    127.50169140	     17.90652665	      0.00000000	      0.00000000	     45.10226054	      1.08652334
      0.01837847	      0.00150605	      0.00070599	      1.66574369	     14.33328381	     20.93919761	      0.00000000	      0.00000000	      0.00000000	      6.53847590	     19.01816922	      0.00000000	      0.00000000	      0.00000000	      0.03259890	      0.02687460	      0.02814963	      0.02861216	      0.05590597	      0.06078113	      0.06313926	      0.05562956	      0.05412802	      0.05230352	      0.02817813	      0.03928666	     -0.09473023	     -0.04904450	     -0.03655251	      0.01651738	      0.03970592	     -0.00621039	     -0.03889627	     -0.00074857	    122.30215248	     23.47325594	    134.06456438	     20.01537669	      0.14953302	      0.00531059	     52.08706022	      1.22521226
